<svg xmlns="http://www.w3.org/2000/svg" width="230.086" height="28.654" viewBox="0 0 230.086 28.654">
  <g id="Group_3585" data-name="Group 3585" transform="translate(-71.736 -169.16)">
    <g id="Group_2708" data-name="Group 2708" transform="translate(93.158 171.792) rotate(45)">
      <path id="Path_1565" data-name="Path 1565" d="M0,0H4.5V7.334a2.252,2.252,0,0,1-4.5,0Z" transform="translate(0 8.342)" fill="#006fd3"/>
      <path id="Subtraction_9" data-name="Subtraction 9" d="M.017,9.142h0C.006,8.621,0,8.012,0,7.334V0H4.5V4.655Z" transform="translate(12.197 8.342)" fill="#006fd3"/>
      <path id="Path_1567" data-name="Path 1567" d="M4.5,15.763h0A8.351,8.351,0,0,1,6.667.17a8.432,8.432,0,0,1,3.366,0,8.306,8.306,0,0,1,2.986,1.256A8.374,8.374,0,0,1,16.044,5.1a8.307,8.307,0,0,1,.487,1.567,8.417,8.417,0,0,1-.158,4.006,8.363,8.363,0,0,1-4.176,5.09V8.576a3.847,3.847,0,0,0-7.693,0v7.187Z" transform="translate(0.002 0)" fill="#006fd3"/>
    </g>
    <g id="Group_2710" data-name="Group 2710" transform="translate(83.546 196.279) rotate(-135)">
      <path id="Path_1565-2" data-name="Path 1565" d="M0,0H4.5V7.334a2.252,2.252,0,0,1-4.5,0Z" transform="translate(0 8.342)" fill="#006fd3"/>
      <path id="Subtraction_10" data-name="Subtraction 10" d="M.014,9.164h0C0,8.631,0,8.015,0,7.334V0H4.5V4.675Z" transform="translate(12.197 8.342)" fill="#006fd3"/>
      <path id="Path_1567-2" data-name="Path 1567" d="M4.5,15.763h0A8.351,8.351,0,0,1,6.667.17a8.432,8.432,0,0,1,3.366,0,8.306,8.306,0,0,1,2.986,1.256A8.374,8.374,0,0,1,16.044,5.1a8.307,8.307,0,0,1,.487,1.567,8.417,8.417,0,0,1-.158,4.006,8.363,8.363,0,0,1-4.176,5.09V8.576a3.847,3.847,0,0,0-7.693,0v7.187Z" transform="translate(0.002 0)" fill="#006fd3"/>
    </g>
  </g>
  <g id="Group_3584" data-name="Group 3584" transform="translate(-280.987 -49.349) rotate(-45)">
    <path id="Path_1561" data-name="Path 1561" d="M0,0H4.8V7.816a2.4,2.4,0,0,1-4.8,0Z" transform="translate(197.558 285.151) rotate(45)" fill="#006fd3"/>
    <path id="Path_1562" data-name="Path 1562" d="M2.4,0A2.4,2.4,0,0,1,4.8,2.4V15.115a2.4,2.4,0,1,1-4.8,0V2.4A2.4,2.4,0,0,1,2.4,0Z" transform="translate(203.745 288.156) rotate(45)" fill="#006fd3"/>
    <path id="Path_1560" data-name="Path 1560" d="M2.4,0A2.4,2.4,0,0,1,4.8,2.4v7.666a2.4,2.4,0,0,1-4.8,0V2.4A2.4,2.4,0,0,1,2.4,0Z" transform="translate(194.553 278.965) rotate(45)" fill="#006fd3"/>
    <path id="Path_1563" data-name="Path 1563" d="M0,0H4.8V7.816a2.4,2.4,0,0,1-4.8,0Z" transform="translate(206.75 294.343) rotate(45)" fill="#006fd3"/>
    <path id="Path_1564" data-name="Path 1564" d="M4.8,16.8h0A8.9,8.9,0,0,1,7.106.181a8.986,8.986,0,0,1,3.587,0A8.852,8.852,0,0,1,13.874,1.52,8.925,8.925,0,0,1,17.1,5.435a8.853,8.853,0,0,1,.519,1.67,8.97,8.97,0,0,1-.168,4.269A8.913,8.913,0,0,1,13,16.8V9.14a4.1,4.1,0,0,0-8.2,0V16.8Z" transform="translate(203.846 278.866) rotate(45)" fill="#006fd3"/>
  </g>
  <g id="Group_3583" data-name="Group 3583" transform="translate(70.325 -505.621)">
    <path id="Union_6" data-name="Union 6" d="M0,22.062V9H0A9.007,9.007,0,0,1,2.635,2.637,9.029,9.029,0,0,1,5.492.707,8.927,8.927,0,0,1,8.992,0l.044,0L9.08,0a8.932,8.932,0,0,1,5.027,1.538,9.047,9.047,0,0,1,1.33,1.1,9.148,9.148,0,0,1,1.1,1.333,8.972,8.972,0,0,1,1.534,4.863H13.2A4.126,4.126,0,0,0,9.08,5.1H8.992a4.145,4.145,0,0,0-4.14,4.142V17h0v5.063a2.425,2.425,0,1,1-4.849,0ZM13.243,24.4V16.829H18.1V24.4Zm-6.667,0V12.828a2.448,2.448,0,0,1,2.44-2.44H17.8a2.428,2.428,0,0,1,0,4.856H11.432V24.4Z" transform="translate(36.175 508.254)" fill="#006fd3"/>
  </g>
  <g id="Group_3582" data-name="Group 3582" transform="translate(11010.169 -3655.83)">
    <path id="Union_3" data-name="Union 3" d="M11.358,24.331a7.6,7.6,0,0,1-2.732-1.15,7.664,7.664,0,0,1-2.769-3.362,7.6,7.6,0,0,1-.445-1.434,7.7,7.7,0,0,1-.155-1.54c0-.049,0-.1,0-.146V10.207L5.241,4.879a4.925,4.925,0,0,1,.1-.983,4.856,4.856,0,0,1,.733-1.745A4.9,4.9,0,0,1,7.389.833a4.866,4.866,0,0,1,6.17.6A4.886,4.886,0,0,1,14.6,2.98a4.852,4.852,0,0,1,.284.916,4.918,4.918,0,0,1,.1.983v1.5h0V16.816a2.069,2.069,0,0,1-4.138,0l.032-10.438h0V5.506a.749.749,0,0,0-1.5,0v6.346l.023,4.785a3.5,3.5,0,1,0,7.009,0v-.385c0-.028,0-.055,0-.083V6.67a2.056,2.056,0,1,1,4.112,0v9.5q0,.081-.006.16.017.257.017.516a7.7,7.7,0,0,1-.155,1.54,7.6,7.6,0,0,1-1.15,2.732,7.662,7.662,0,0,1-3.362,2.769,7.6,7.6,0,0,1-1.434.445,7.716,7.716,0,0,1-3.08,0ZM5.2,20.764c-.177-.06-.354-.127-.525-.2A7.632,7.632,0,0,1,.006,13.524c0-.006,0-.011,0-.017Q0,13.431,0,13.354V6.67a2.056,2.056,0,1,1,4.112,0V6.74l.015,3.218c-.005.06-.008.121-.008.182V16.7c0,.049,0,.1,0,.146a7.7,7.7,0,0,0,.155,1.54A7.594,7.594,0,0,0,5.2,20.764h0Z" transform="translate(-10853.824 3658.463)" fill="#006fd3"/>
  </g>
  <g id="Group_3581" data-name="Group 3581" transform="translate(227.78 539.329) rotate(-135)">
    <rect id="Rectangle_245" data-name="Rectangle 245" width="5.464" height="14.192" rx="2.732" transform="translate(379.622 358.977) rotate(45)" fill="#006fd3"/>
    <path id="Rectangle_241" data-name="Rectangle 241" d="M0,0H5.464a0,0,0,0,1,0,0V8.9A2.732,2.732,0,0,1,2.732,11.63h0A2.732,2.732,0,0,1,0,8.9V0A0,0,0,0,1,0,0Z" transform="translate(383.043 366.02) rotate(45)" fill="#006fd3"/>
    <path id="Subtraction_13" data-name="Subtraction 13" d="M7.074,19.791h0l6.166-6.164a4.667,4.667,0,0,0-6.6-6.6L.476,13.19a10.13,10.13,0,1,1,6.6,6.6Z" transform="translate(369.601 352.597)" fill="#006fd3"/>
  </g>
</svg>




