<svg xmlns="http://www.w3.org/2000/svg" xmlns:xlink="http://www.w3.org/1999/xlink" x="0px" y="0px" width="216px" height="54px" viewBox="0 0 216 54" >
  <defs>
    <style>
      .cls-1 {
        fill: #61eebe;
      }
    </style>
  </defs>
  <g transform="scale(0.35)">
  	<g transform="translate(181, 19)">
  <path id="Subtraction_12" data-name="Subtraction 12" class="cls-1" d="M10195.259-1060.341h-40.725v-61.1h40.725v61.1Zm-55.149,0h-40.724v-130.087a19.869,19.869,0,0,1,5.857-14.142,19.87,19.87,0,0,1,14.142-5.858h.726a19.87,19.87,0,0,1,14.142,5.858,19.869,19.869,0,0,1,5.857,14.142v13.586h55.006v40.789h-55.006v75.713Zm-55.148,0h-40.722v-130.1h.013a75.3,75.3,0,0,1,5.934-29.364,75.733,75.733,0,0,1,6.962-12.847,76.122,76.122,0,0,1,9.222-11.193,75.775,75.775,0,0,1,11.176-9.234,75.473,75.473,0,0,1,12.824-6.972,74.927,74.927,0,0,1,29.393-5.944,74.927,74.927,0,0,1,29.393,5.944,75.337,75.337,0,0,1,12.824,6.972,75.775,75.775,0,0,1,11.176,9.234,76.2,76.2,0,0,1,9.221,11.193,75.736,75.736,0,0,1,6.963,12.847,75.248,75.248,0,0,1,5.934,29.439c0,.117,0,.235,0,.354v.182l0,.183h-40.742a34.658,34.658,0,0,0-34.763-33.508,34.825,34.825,0,0,0-34.785,34.785v65.15l-.007,0h0l0,0h0l0,0v62.891Z" transform="translate(-10044.239 1266.001)"/>
  </g>  </g>
</svg>
