<svg xmlns="http://www.w3.org/2000/svg" width="29.717" height="29.71" viewBox="0 0 29.717 29.71">
  <g id="Group_3580" data-name="Group 3580" transform="translate(-10.236 -73)">
    <path id="Path_2" data-name="Path 2" d="M328.27,405.191a10.933,10.933,0,0,1,1.461-.919,10.771,10.771,0,0,1,15.482,11.935l4.32-1.4a14.85,14.85,0,0,0-24.3-12.411l-2.631-2.415-2.577,11.565L331.33,408l-3.061-2.809Z" transform="translate(-309.614 -325.971)" fill="#006fd3"/>
    <path id="Path_3" data-name="Path 3" d="M345.8,496.433l2.577-11.566-11.309,3.549,2.937,2.7a10.768,10.768,0,0,1-16.78-10.876l-4.273,1.392A14.856,14.856,0,0,0,340.66,495.49a14.968,14.968,0,0,0,2.406-1.569l2.736,2.512Z" transform="translate(-308.7 -394.469)" fill="#006fd3"/>
  </g>
</svg>
